<?xml version="1.0" encoding="UTF-8" standalone="no"?>
<!-- Created with Inkscape (http://www.inkscape.org/) -->

<svg
   width="210mm"
   height="297mm"
   viewBox="0 0 210 297"
   version="1.1"
   id="svg5"
   xml:space="preserve"
   inkscape:version="1.2.2 (b0a8486541, 2022-12-01)"
   sodipodi:docname="icons.svg"
   inkscape:export-filename="play-store-icon.png"
   inkscape:export-xdpi="96"
   inkscape:export-ydpi="96"
   xmlns:inkscape="http://www.inkscape.org/namespaces/inkscape"
   xmlns:sodipodi="http://sodipodi.sourceforge.net/DTD/sodipodi-0.dtd"
   xmlns:xlink="http://www.w3.org/1999/xlink"
   xmlns="http://www.w3.org/2000/svg"
   xmlns:svg="http://www.w3.org/2000/svg"><sodipodi:namedview
     id="namedview7"
     pagecolor="#ffffff"
     bordercolor="#000000"
     borderopacity="0.25"
     inkscape:showpageshadow="2"
     inkscape:pageopacity="0.0"
     inkscape:pagecheckerboard="0"
     inkscape:deskcolor="#d1d1d1"
     inkscape:document-units="mm"
     showgrid="false"
     inkscape:zoom="0.5"
     inkscape:cx="2041"
     inkscape:cy="868"
     inkscape:window-width="2560"
     inkscape:window-height="1371"
     inkscape:window-x="0"
     inkscape:window-y="0"
     inkscape:window-maximized="1"
     inkscape:current-layer="layer1" /><defs
     id="defs2"><rect
       x="2593.9531"
       y="865.53906"
       width="612.08594"
       height="328.99219"
       id="rect1103" /><rect
       x="2639.9766"
       y="861.28125"
       width="375.20313"
       height="369.61719"
       id="rect1097" /><linearGradient
       inkscape:collect="always"
       id="linearGradient984"><stop
         style="stop-color:#000000;stop-opacity:1;"
         offset="0"
         id="stop980" /><stop
         style="stop-color:#000000;stop-opacity:1;"
         offset="0.70053285"
         id="stop1112" /><stop
         style="stop-color:#272727;stop-opacity:1;"
         offset="1"
         id="stop982" /></linearGradient><linearGradient
       inkscape:collect="always"
       id="linearGradient2194"><stop
         style="stop-color:#13a2d1;stop-opacity:0;"
         offset="0"
         id="stop2188" /><stop
         style="stop-color:#13a2d1;stop-opacity:0;"
         offset="0.81113857"
         id="stop2190" /><stop
         style="stop-color:#13a0cd;stop-opacity:0.8919785;"
         offset="0.87751532"
         id="stop4956" /><stop
         style="stop-color:#129bc9;stop-opacity:1;"
         offset="1"
         id="stop2192" /></linearGradient><linearGradient
       inkscape:collect="always"
       id="linearGradient2170"><stop
         style="stop-color:#13a2d1;stop-opacity:0;"
         offset="0"
         id="stop2166" /><stop
         style="stop-color:#14a7d7;stop-opacity:0.87946945;"
         offset="0.78777128"
         id="stop2174" /><stop
         style="stop-color:#1ebbeb;stop-opacity:1;"
         offset="1"
         id="stop2168" /></linearGradient><radialGradient
       inkscape:collect="always"
       xlink:href="#linearGradient2170"
       id="radialGradient2172"
       cx="-112.31979"
       cy="101.35712"
       fx="-112.31979"
       fy="101.35712"
       r="67.73333"
       gradientUnits="userSpaceOnUse"
       gradientTransform="matrix(1.0579504,-0.65276535,0.83032418,1.3457237,-53.510574,-101.52012)" /><radialGradient
       inkscape:collect="always"
       xlink:href="#linearGradient2194"
       id="radialGradient2186"
       gradientUnits="userSpaceOnUse"
       gradientTransform="matrix(-1.1335572,0.63677228,-0.76582027,-1.3632835,-64.545879,453.61788)"
       cx="-108.05699"
       cy="250.86444"
       fx="-108.05699"
       fy="250.86444"
       r="67.73333" /><radialGradient
       inkscape:collect="always"
       xlink:href="#linearGradient2194"
       id="radialGradient397"
       gradientUnits="userSpaceOnUse"
       gradientTransform="matrix(-1.194407,0.67095447,-0.80692981,-1.4364651,448.17213,310.9235)"
       cx="-108.05699"
       cy="250.86444"
       fx="-108.05699"
       fy="250.86444"
       r="67.73333" /><radialGradient
       inkscape:collect="always"
       xlink:href="#linearGradient2170"
       id="radialGradient399"
       gradientUnits="userSpaceOnUse"
       gradientTransform="matrix(1.1147416,-0.68780606,0.87489631,1.4179627,459.79981,-274.01453)"
       cx="-112.31979"
       cy="101.35712"
       fx="-112.31979"
       fy="101.35712"
       r="67.73333" /><radialGradient
       inkscape:collect="always"
       xlink:href="#linearGradient984"
       id="radialGradient1114"
       cx="397.68127"
       cy="-27.751398"
       fx="397.68127"
       fy="-27.751398"
       r="77.341011"
       gradientUnits="userSpaceOnUse"
       gradientTransform="matrix(1.380768,-0.79073039,0.83858086,1.4643244,-97.643374,321.09366)" /><radialGradient
       inkscape:collect="always"
       xlink:href="#linearGradient2170"
       id="radialGradient1475"
       gradientUnits="userSpaceOnUse"
       gradientTransform="matrix(1.1147416,-0.68780606,0.87489631,1.4179627,459.79981,-274.01453)"
       cx="-112.31979"
       cy="101.35712"
       fx="-112.31979"
       fy="101.35712"
       r="67.73333" /><radialGradient
       inkscape:collect="always"
       xlink:href="#linearGradient2194"
       id="radialGradient1477"
       gradientUnits="userSpaceOnUse"
       gradientTransform="matrix(-1.194407,0.67095447,-0.80692981,-1.4364651,448.17213,310.9235)"
       cx="-108.05699"
       cy="250.86444"
       fx="-108.05699"
       fy="250.86444"
       r="67.73333" /><radialGradient
       inkscape:collect="always"
       xlink:href="#linearGradient984"
       id="radialGradient1479"
       gradientUnits="userSpaceOnUse"
       gradientTransform="matrix(1.380768,-0.79073039,0.83858086,1.4643244,-97.643374,321.09366)"
       cx="397.68127"
       cy="-27.751398"
       fx="397.68127"
       fy="-27.751398"
       r="77.341011" /></defs><g
     inkscape:label="Layer 1"
     inkscape:groupmode="layer"
     id="layer1"><rect
       style="fill:#13a2d1;fill-opacity:1;stroke-width:0.275129"
       id="rect334"
       width="135.467"
       height="135.467"
       x="710.53674"
       y="-63.475525"
       inkscape:export-filename="play-store-icon.png"
       inkscape:export-xdpi="96"
       inkscape:export-ydpi="96" /><circle
       style="fill:#13a2d1;fill-opacity:1;stroke-width:0.1"
       id="circle4966"
       cx="-111.31149"
       cy="74.581497"
       inkscape:export-filename="icon-512.png"
       inkscape:export-xdpi="96"
       inkscape:export-ydpi="96"
       r="67.73333" /><circle
       style="fill:url(#radialGradient2172);fill-opacity:1;stroke-width:0.1"
       id="circle2178"
       cx="-111.31149"
       cy="74.581497"
       inkscape:export-filename="icon-512.png"
       inkscape:export-xdpi="96"
       inkscape:export-ydpi="96"
       r="67.73333" /><circle
       style="fill:url(#radialGradient2186);fill-opacity:1;stroke-width:0.1"
       id="circle1842"
       cx="-111.31149"
       cy="74.581497"
       inkscape:export-filename="assets/icon/icon-512.png"
       inkscape:export-xdpi="96"
       inkscape:export-ydpi="96"
       r="67.73333" /><rect
       style="fill:none;fill-opacity:1;stroke-width:0.0775094"
       id="rect1118-3"
       width="114.3"
       height="114.3"
       x="-178.18881"
       y="17.754576"
       inkscape:export-filename="icon-foreground-432.png"
       inkscape:export-xdpi="96"
       inkscape:export-ydpi="96" /><g
       id="g23731"
       transform="translate(356.12329,25.540526)"><g
         id="g21546"
         transform="matrix(16.679453,0,0,16.679453,3832.4476,923.32522)"
         style="fill:#ff6600;fill-opacity:1"><path
           id="path21544"
           style="fill:#ff6600;fill-opacity:1;stroke-width:0.00792878"
           d="m -246.12503,-39.778451 h 0.34933 v 0.372071 h 0.15245 v -0.372071 h 0.0651 v -3.642154 c 0.29265,-0.133877 0.777,-0.149374 1.04645,0 v 3.642154 h 0.0646 v 0.372071 h 0.15296 v -0.372071 h 0.34936 v -3.513662 c 0,0 -0.0738,-0.400279 -0.18676,-0.511436 -0.50621,-0.397754 -1.30065,-0.397778 -1.80684,0 -0.10957,0.109753 -0.18671,0.511436 -0.18671,0.511436 z"
           sodipodi:nodetypes="ccccccccccccccccccc" /></g><g
         id="g21566"
         transform="translate(-113.89023,-36.947089)"><g
           id="g21550"
           transform="matrix(16.679453,0,0,16.679453,3946.4968,883.85793)"><path
             id="path21548"
             style="stroke-width:0.00792878"
             d="m -245.04239,-41.657309 c 0,0 -0.70389,0.143724 -1.03009,0.433654 l 4e-4,1.491517 c 0.14478,-0.121675 0.28214,-0.177342 0.50464,-0.227376 v -1.161798 c 0,0 0.18555,-0.07329 0.28334,-0.08815 0.158,-0.02401 0.32143,-0.02398 0.47943,0 0.0979,0.01486 0.28368,0.08816 0.28368,0.08816 v 1.164381 c 0.22757,0.05145 0.36624,0.107835 0.50464,0.225309 v -1.492033 c -0.31037,-0.286125 -1.02604,-0.433664 -1.02604,-0.433664 z"
             sodipodi:nodetypes="cccccaaccccc" /></g><path
           id="path21552"
           style="stroke-width:2.14348"
           d="m -144.32184,167.52876 h 7.22339 l -1.4e-4,24.07701 h -7.22203 z"
           sodipodi:nodetypes="ccccc" /></g></g><circle
       style="fill:#13a2d1;fill-opacity:1;stroke-width:0.1"
       id="circle21561"
       cx="93.379898"
       cy="74.67865"
       inkscape:export-filename="icon-512.png"
       inkscape:export-xdpi="96"
       inkscape:export-ydpi="96"
       r="67.73333" /><g
       id="g21586"
       transform="matrix(0.65765046,0.54863232,-0.60314139,0.60314139,284.4348,-29.10116)"><g
         id="g21570"
         transform="matrix(16.679453,0,0,16.679453,4015.1299,960.27231)"
         style="fill:#ff6600;fill-opacity:1"><path
           id="path21568"
           style="fill:#ff6600;fill-opacity:1;stroke-width:0.00792878"
           d="m -246.12503,-39.778451 h 0.34933 v 0.372071 h 0.15245 v -0.372071 h 0.0651 v -3.642154 c 0.29265,-0.133877 0.777,-0.149374 1.04645,0 v 3.642154 h 0.0646 v 0.372071 h 0.15296 v -0.372071 h 0.34936 v -3.513662 c 0,0 -0.0738,-0.400279 -0.18676,-0.511436 -0.50621,-0.397754 -1.30065,-0.397778 -1.80684,0 -0.10957,0.109753 -0.18671,0.511436 -0.18671,0.511436 z"
           sodipodi:nodetypes="ccccccccccccccccccc" /></g><g
         id="g21578"
         transform="translate(68.79167)"><g
           id="g21574"
           transform="matrix(16.679453,0,0,16.679453,3946.4968,883.85793)"><path
             id="path21572"
             style="stroke-width:0.00792878"
             d="m -245.04239,-41.657309 c 0,0 -0.70389,0.143724 -1.03009,0.433654 l 4e-4,1.491517 c 0.14478,-0.121675 0.28214,-0.177342 0.50464,-0.227376 v -1.161798 c 0,0 0.18555,-0.07329 0.28334,-0.08815 0.158,-0.02401 0.32143,-0.02398 0.47943,0 0.0979,0.01486 0.28368,0.08816 0.28368,0.08816 v 1.164381 c 0.22757,0.05145 0.36624,0.107835 0.50464,0.225309 v -1.492033 c -0.31037,-0.286125 -1.02604,-0.433664 -1.02604,-0.433664 z"
             sodipodi:nodetypes="cccccaaccccc" /></g><path
           id="path21576"
           style="stroke-width:2.14348"
           d="m -144.32184,167.52876 h 7.22339 l -1.4e-4,24.07701 h -7.22203 z"
           sodipodi:nodetypes="ccccc" /></g></g><g
       id="g22224"
       transform="matrix(-1,0,0,1,-1210.0422,0)" /><g
       id="g23723"
       transform="translate(904.39682,-74.16798)"><rect
         style="fill:none;fill-opacity:1;stroke-width:0.1"
         id="rect23035"
         width="135.46666"
         height="135.46666"
         x="-789.57037"
         y="405.08948"
         inkscape:export-filename="shock.svg"
         inkscape:export-xdpi="96.000046"
         inkscape:export-ydpi="96.000046" /><g
         id="g21956"
         transform="matrix(-0.47301969,-0.47301969,0.47301969,-0.47301969,-1259.5789,437.98321)"><g
           id="g22539"
           inkscape:export-filename="shock.svg"
           inkscape:export-xdpi="96"
           inkscape:export-ydpi="96"><path
             id="rect21948"
             style="stroke-width:0.1"
             d="m -614.67101,507.44488 c -2.57964,0.12423 -7.0596,2.69632 -7.09,4.7625 v 39.98371 c 0.19807,2.39219 4.19906,4.53969 7.09,4.23333 h 76.57 c 3.15277,-0.0478 6.71924,-2.11149 6.72001,-4.23333 v -8.12301 h 13.86427 0.0465 v -0.002 c 4.47312,-0.0162 8.60049,-2.40875 10.83758,-6.28231 2.24501,-3.88846 2.24501,-8.67925 0,-12.56771 -2.23709,-3.87355 -6.36447,-6.2661 -10.83758,-6.2823 v -0.002 l -0.0465,10e-4 H -531.381 v -6.72529 c -0.079,-3.17811 -3.73715,-4.66185 -6.72001,-4.7625 z m 97.06901,17.36133 c 3.69655,-9e-5 6.69322,2.99658 6.69313,6.69313 9e-5,3.69655 -2.99658,6.69322 -6.69313,6.69313 -3.69655,9e-5 -6.69322,-2.99658 -6.69313,-6.69313 -9e-5,-3.69655 2.99658,-6.69322 6.69313,-6.69313 z"
             sodipodi:nodetypes="cccccccccccccccccccsssss" /><path
             id="rect21790"
             style="fill:#000000;fill-opacity:1;stroke-width:0.100142"
             d="m -692.5722,518.93163 v 0.002 a 12.567708,12.567708 0 0 0 -10.83758,6.28231 12.567708,12.567708 0 0 0 0,12.5677 12.567708,12.567708 0 0 0 10.83758,6.28231 v 0.002 h 0.0465 54.75532 v -25.13542 h -54.75532 z m 0.13178,5.87458 a 6.6929693,6.6929693 0 0 1 6.69313,6.69313 6.6929693,6.6929693 0 0 1 -6.69313,6.69313 6.6929693,6.6929693 0 0 1 -6.69313,-6.69313 6.6929693,6.6929693 0 0 1 6.69313,-6.69313 z" /></g></g></g><g
       id="g21446"
       transform="matrix(20.127279,0,0,16.925991,4930.0901,1142.3115)"><path
         id="rect21403"
         style="stroke-width:0.00792878"
         d="m -246.17761,-39.714999 h 0.6995 v -3.642154 c 0.29265,-0.133877 0.61692,-0.149374 0.88637,0 v 3.642154 h 0.69954 v -3.60884 c 0,0 -0.0738,-0.400279 -0.18676,-0.511436 -0.50621,-0.397754 -1.40581,-0.397778 -1.912,0 -0.10957,0.109753 -0.18671,0.511436 -0.18671,0.511436 z"
         sodipodi:nodetypes="ccccccccccc" /></g><g
       id="g21457"
       transform="matrix(20.127279,0,0,16.925991,4930.2819,1063.7092)"><path
         id="path21455"
         style="stroke-width:0.00792878"
         d="m -245.26094,-43.199667 5e-5,1.351501 c -0.21145,0.06786 -0.66153,0.191526 -0.86417,0.37163 l 3.9e-4,1.74439 c 0.14478,-0.121675 0.41477,-0.177344 0.63727,-0.227378 v -1.161797 c 0,0 0.13227,-0.07322 0.2033,-0.08814 0.14862,-0.03121 0.30366,-0.02783 0.45275,0 0.0797,0.01487 0.23032,0.08817 0.23032,0.08817 v 1.164369 c 0.22757,0.05145 0.49886,0.107828 0.63726,0.225302 v -1.744917 c -0.19489,-0.179668 -0.65064,-0.304646 -0.86412,-0.372807 v -1.350324 z"
         sodipodi:nodetypes="ccccccccccccccc" /></g><rect
       style="fill:none;fill-opacity:1;stroke-width:0.102525"
       id="rect23222"
       width="138.88693"
       height="138.88693"
       x="-71.239731"
       y="332.24335"
       inkscape:export-filename="assets/icon/fork.svg"
       inkscape:export-xdpi="93.635918"
       inkscape:export-ydpi="93.635918" /><circle
       style="fill:#13a2d1;fill-opacity:1;stroke-width:5.55625;stroke:#000000;stroke-opacity:1;stroke-dasharray:none"
       id="circle319"
       cx="311.2081"
       cy="81.36853"
       inkscape:export-filename="assets/icon/icon.svg"
       inkscape:export-xdpi="92.217636"
       inkscape:export-ydpi="92.217636"
       r="67.73333" /><g
       id="g333"
       transform="matrix(0.65765046,0.54863232,-0.60314139,0.60314139,500.94012,-21.617531)"><g
         id="g323"
         transform="matrix(16.679453,0,0,16.679453,4015.1299,960.27231)"
         style="fill:#ff6600;fill-opacity:1"><path
           id="path321"
           style="fill:#ff6600;fill-opacity:1;stroke-width:0.00792878"
           d="m -246.12503,-39.778451 h 0.34933 v 0.372071 h 0.15245 v -0.372071 h 0.0651 v -3.642154 c 0.29265,-0.133877 0.777,-0.149374 1.04645,0 v 3.642154 h 0.0646 v 0.372071 h 0.15296 v -0.372071 h 0.34936 v -3.513662 c 0,0 -0.0738,-0.400279 -0.18676,-0.511436 -0.50621,-0.397754 -1.30065,-0.397778 -1.80684,0 -0.10957,0.109753 -0.18671,0.511436 -0.18671,0.511436 z"
           sodipodi:nodetypes="ccccccccccccccccccc" /></g><g
         id="g331"
         transform="translate(68.79167)"><g
           id="g327"
           transform="matrix(16.679453,0,0,16.679453,3946.4968,883.85793)"><path
             id="path325"
             style="stroke-width:0.00792878"
             d="m -245.04239,-41.657309 c 0,0 -0.70389,0.143724 -1.03009,0.433654 l 4e-4,1.491517 c 0.14478,-0.121675 0.28214,-0.177342 0.50464,-0.227376 v -1.161798 c 0,0 0.18555,-0.07329 0.28334,-0.08815 0.158,-0.02401 0.32143,-0.02398 0.47943,0 0.0979,0.01486 0.28368,0.08816 0.28368,0.08816 v 1.164381 c 0.22757,0.05145 0.36624,0.107835 0.50464,0.225309 v -1.492033 c -0.31037,-0.286125 -1.02604,-0.433664 -1.02604,-0.433664 z"
             sodipodi:nodetypes="cccccaaccccc" /></g><path
           id="path329"
           style="stroke-width:2.14348"
           d="m -144.32184,167.52876 h 7.22339 l -1.4e-4,24.07701 h -7.22203 z"
           sodipodi:nodetypes="ccccc" /></g></g><circle
       style="fill:none;fill-opacity:1;stroke:#ffffff;stroke-width:5.55625;stroke-dasharray:none;stroke-opacity:1"
       id="circle1323"
       cx="71.31073"
       cy="-154.60291"
       inkscape:export-filename="assets/icon/test.png"
       inkscape:export-xdpi="92.217636"
       inkscape:export-ydpi="92.217636"
       r="67.73333" /><g
       id="g1337"
       transform="matrix(0.65765046,0.54863232,-0.60314139,0.60314139,261.04275,-257.58896)"
       style="stroke:none;stroke-opacity:1;fill:#ffffff;fill-opacity:1"><g
         id="g1327"
         transform="matrix(16.679453,0,0,16.679453,4015.1299,960.27231)"
         style="fill:#ffffff;fill-opacity:1;stroke:none;stroke-opacity:1"><path
           id="path1325"
           style="fill:#ffffff;fill-opacity:1;stroke-width:0.00792878;stroke:none;stroke-opacity:1"
           d="m -246.12503,-39.778451 h 0.34933 v 0.372071 h 0.15245 v -0.372071 h 0.0651 v -3.642154 c 0.29265,-0.133877 0.777,-0.149374 1.04645,0 v 3.642154 h 0.0646 v 0.372071 h 0.15296 v -0.372071 h 0.34936 v -3.513662 c 0,0 -0.0738,-0.400279 -0.18676,-0.511436 -0.50621,-0.397754 -1.30065,-0.397778 -1.80684,0 -0.10957,0.109753 -0.18671,0.511436 -0.18671,0.511436 z"
           sodipodi:nodetypes="ccccccccccccccccccc" /></g><g
         id="g1335"
         transform="translate(68.79167)"
         style="stroke:none;stroke-opacity:1;fill:#ffffff;fill-opacity:1"><g
           id="g1331"
           transform="matrix(16.679453,0,0,16.679453,3946.4968,883.85793)"
           style="stroke:none;stroke-opacity:1;fill:#ffffff;fill-opacity:1"><path
             id="path1329"
             style="stroke-width:0.00792878;stroke:none;stroke-opacity:1;fill:#ffffff;fill-opacity:1"
             d="m -245.04239,-41.657309 c 0,0 -0.70389,0.143724 -1.03009,0.433654 l 4e-4,1.491517 c 0.14478,-0.121675 0.28214,-0.177342 0.50464,-0.227376 v -1.161798 c 0,0 0.18555,-0.07329 0.28334,-0.08815 0.158,-0.02401 0.32143,-0.02398 0.47943,0 0.0979,0.01486 0.28368,0.08816 0.28368,0.08816 v 1.164381 c 0.22757,0.05145 0.36624,0.107835 0.50464,0.225309 v -1.492033 c -0.31037,-0.286125 -1.02604,-0.433664 -1.02604,-0.433664 z"
             sodipodi:nodetypes="cccccaaccccc" /></g><path
           id="path1333"
           style="stroke-width:2.14348;stroke:none;stroke-opacity:1;fill:#ffffff;fill-opacity:1"
           d="m -144.32184,167.52876 h 7.22339 l -1.4e-4,24.07701 h -7.22203 z"
           sodipodi:nodetypes="ccccc" /></g></g><g
       id="g1856"
       transform="matrix(0.65765046,0.54863232,-0.60314139,0.60314139,79.743418,-29.198312)"><g
         id="g1846"
         transform="matrix(16.679453,0,0,16.679453,4015.1299,960.27231)"
         style="fill:#ff6600;fill-opacity:1"><path
           id="path1844"
           style="fill:#ff6600;fill-opacity:1;stroke-width:0.00792878"
           d="m -246.12503,-39.778451 h 0.34933 v 0.372071 h 0.15245 v -0.372071 h 0.0651 v -3.642154 c 0.29265,-0.133877 0.777,-0.149374 1.04645,0 v 3.642154 h 0.0646 v 0.372071 h 0.15296 v -0.372071 h 0.34936 v -3.513662 c 0,0 -0.0738,-0.400279 -0.18676,-0.511436 -0.50621,-0.397754 -1.30065,-0.397778 -1.80684,0 -0.10957,0.109753 -0.18671,0.511436 -0.18671,0.511436 z"
           sodipodi:nodetypes="ccccccccccccccccccc" /></g><g
         id="g1854"
         transform="translate(68.79167)"><g
           id="g1850"
           transform="matrix(16.679453,0,0,16.679453,3946.4968,883.85793)"><path
             id="path1848"
             style="stroke-width:0.00792878"
             d="m -245.04239,-41.657309 c 0,0 -0.70389,0.143724 -1.03009,0.433654 l 4e-4,1.491517 c 0.14478,-0.121675 0.28214,-0.177342 0.50464,-0.227376 v -1.161798 c 0,0 0.18555,-0.07329 0.28334,-0.08815 0.158,-0.02401 0.32143,-0.02398 0.47943,0 0.0979,0.01486 0.28368,0.08816 0.28368,0.08816 v 1.164381 c 0.22757,0.05145 0.36624,0.107835 0.50464,0.225309 v -1.492033 c -0.31037,-0.286125 -1.02604,-0.433664 -1.02604,-0.433664 z"
             sodipodi:nodetypes="cccccaaccccc" /></g><path
           id="path1852"
           style="stroke-width:2.14348"
           d="m -144.32184,167.52876 h 7.22339 l -1.4e-4,24.07701 h -7.22203 z"
           sodipodi:nodetypes="ccccc" /></g></g><g
       id="g1128"
       transform="translate(-69.824999,-82.62011)"
       inkscape:export-filename="play-store-graphic.png"
       inkscape:export-xdpi="168.14882"
       inkscape:export-ydpi="168.14882"><circle
         style="fill:#13a2d1;fill-opacity:1;stroke-width:0.105368"
         id="circle375"
         cx="398.89612"
         cy="-88.459717"
         inkscape:export-filename="icon-512.png"
         inkscape:export-xdpi="96"
         inkscape:export-ydpi="96"
         r="71.369286" /><circle
         style="fill:url(#radialGradient399);fill-opacity:1;stroke-width:0.105368"
         id="circle377"
         cx="398.89612"
         cy="-88.459717"
         inkscape:export-filename="icon-512.png"
         inkscape:export-xdpi="96"
         inkscape:export-ydpi="96"
         r="71.369286" /><circle
         style="fill:url(#radialGradient397);fill-opacity:1;stroke-width:0.105368"
         id="circle379"
         cx="398.89612"
         cy="-88.459717"
         inkscape:export-filename="assets/icon/icon-512.png"
         inkscape:export-xdpi="96"
         inkscape:export-ydpi="96"
         r="71.369286" /><rect
         style="fill:none;fill-opacity:1;stroke-width:0.0816701"
         id="rect381"
         width="120.43568"
         height="120.43568"
         x="328.4288"
         y="-148.33713"
         inkscape:export-filename="icon-foreground-432.png"
         inkscape:export-xdpi="96"
         inkscape:export-ydpi="96" /><g
         id="g395"
         transform="matrix(0.65765046,0.54863232,-0.60314139,0.60314139,589.95104,-192.23952)"><g
           id="g385"
           transform="matrix(16.679453,0,0,16.679453,4015.1299,960.27231)"
           style="fill:#ff6600;fill-opacity:1"><path
             id="path383"
             style="fill:#ff6600;fill-opacity:1;stroke-width:0.00792878"
             d="m -246.12503,-39.778451 h 0.34933 v 0.372071 h 0.15245 v -0.372071 h 0.0651 v -3.642154 c 0.29265,-0.133877 0.777,-0.149374 1.04645,0 v 3.642154 h 0.0646 v 0.372071 h 0.15296 v -0.372071 h 0.34936 v -3.513662 c 0,0 -0.0738,-0.400279 -0.18676,-0.511436 -0.50621,-0.397754 -1.30065,-0.397778 -1.80684,0 -0.10957,0.109753 -0.18671,0.511436 -0.18671,0.511436 z"
             sodipodi:nodetypes="ccccccccccccccccccc" /></g><g
           id="g393"
           transform="translate(68.79167)"><g
             id="g389"
             transform="matrix(16.679453,0,0,16.679453,3946.4968,883.85793)"><path
               id="path387"
               style="stroke-width:0.00792878"
               d="m -245.04239,-41.657309 c 0,0 -0.70389,0.143724 -1.03009,0.433654 l 4e-4,1.491517 c 0.14478,-0.121675 0.28214,-0.177342 0.50464,-0.227376 v -1.161798 c 0,0 0.18555,-0.07329 0.28334,-0.08815 0.158,-0.02401 0.32143,-0.02398 0.47943,0 0.0979,0.01486 0.28368,0.08816 0.28368,0.08816 v 1.164381 c 0.22757,0.05145 0.36624,0.107835 0.50464,0.225309 v -1.492033 c -0.31037,-0.286125 -1.02604,-0.433664 -1.02604,-0.433664 z"
               sodipodi:nodetypes="cccccaaccccc" /></g><path
             id="path391"
             style="stroke-width:2.14348"
             d="m -144.32184,167.52876 h 7.22339 l -1.4e-4,24.07701 h -7.22203 z"
             sodipodi:nodetypes="ccccc" /></g></g><circle
         style="fill:none;fill-opacity:1;stroke:url(#radialGradient1114);stroke-width:6.06073;stroke-dasharray:none;stroke-opacity:1;paint-order:normal"
         id="circle401"
         cx="398.89612"
         cy="-88.459717"
         inkscape:export-filename="assets/icon/icon-512.png"
         inkscape:export-xdpi="96"
         inkscape:export-ydpi="96"
         r="74.310646" /></g><rect
       style="opacity:0.62428;fill:#9c9c9c;fill-opacity:0;stroke:none;stroke-width:5.82083;stroke-dasharray:none;stroke-opacity:1;paint-order:normal"
       id="rect1429"
       width="304.79999"
       height="304.79999"
       x="-472.51706"
       y="-303.70175"
       inkscape:export-filename="assets/icon/splash.png"
       inkscape:export-xdpi="96"
       inkscape:export-ydpi="96" /><g
       id="g1473"
       transform="matrix(1.281901,0,0,1.2891402,-831.4624,-37.264781)"
       inkscape:export-filename="assets/icon/splash.svg"
       inkscape:export-xdpi="168.14882"
       inkscape:export-ydpi="168.14882"><circle
         style="fill:#13a2d1;fill-opacity:1;stroke-width:0.105368"
         id="circle1449"
         cx="398.89612"
         cy="-88.459717"
         inkscape:export-filename="icon-512.png"
         inkscape:export-xdpi="96"
         inkscape:export-ydpi="96"
         r="71.369286" /><circle
         style="fill:url(#radialGradient1475);fill-opacity:1;stroke-width:0.105368"
         id="circle1451"
         cx="398.89612"
         cy="-88.459717"
         inkscape:export-filename="icon-512.png"
         inkscape:export-xdpi="96"
         inkscape:export-ydpi="96"
         r="71.369286" /><circle
         style="fill:url(#radialGradient1477);fill-opacity:1;stroke-width:0.105368"
         id="circle1453"
         cx="398.89612"
         cy="-88.459717"
         inkscape:export-filename="assets/icon/icon-512.png"
         inkscape:export-xdpi="96"
         inkscape:export-ydpi="96"
         r="71.369286" /><rect
         style="fill:none;fill-opacity:1;stroke-width:0.0816701"
         id="rect1455"
         width="120.43568"
         height="120.43568"
         x="328.4288"
         y="-148.33713"
         inkscape:export-filename="icon-foreground-432.png"
         inkscape:export-xdpi="96"
         inkscape:export-ydpi="96" /><g
         id="g1469"
         transform="matrix(0.65765046,0.54863232,-0.60314139,0.60314139,589.95104,-192.23952)"><g
           id="g1459"
           transform="matrix(16.679453,0,0,16.679453,4015.1299,960.27231)"
           style="fill:#ff6600;fill-opacity:1"><path
             id="path1457"
             style="fill:#ff6600;fill-opacity:1;stroke-width:0.00792878"
             d="m -246.12503,-39.778451 h 0.34933 v 0.372071 h 0.15245 v -0.372071 h 0.0651 v -3.642154 c 0.29265,-0.133877 0.777,-0.149374 1.04645,0 v 3.642154 h 0.0646 v 0.372071 h 0.15296 v -0.372071 h 0.34936 v -3.513662 c 0,0 -0.0738,-0.400279 -0.18676,-0.511436 -0.50621,-0.397754 -1.30065,-0.397778 -1.80684,0 -0.10957,0.109753 -0.18671,0.511436 -0.18671,0.511436 z"
             sodipodi:nodetypes="ccccccccccccccccccc" /></g><g
           id="g1467"
           transform="translate(68.79167)"><g
             id="g1463"
             transform="matrix(16.679453,0,0,16.679453,3946.4968,883.85793)"><path
               id="path1461"
               style="stroke-width:0.00792878"
               d="m -245.04239,-41.657309 c 0,0 -0.70389,0.143724 -1.03009,0.433654 l 4e-4,1.491517 c 0.14478,-0.121675 0.28214,-0.177342 0.50464,-0.227376 v -1.161798 c 0,0 0.18555,-0.07329 0.28334,-0.08815 0.158,-0.02401 0.32143,-0.02398 0.47943,0 0.0979,0.01486 0.28368,0.08816 0.28368,0.08816 v 1.164381 c 0.22757,0.05145 0.36624,0.107835 0.50464,0.225309 v -1.492033 c -0.31037,-0.286125 -1.02604,-0.433664 -1.02604,-0.433664 z"
               sodipodi:nodetypes="cccccaaccccc" /></g><path
             id="path1465"
             style="stroke-width:2.14348"
             d="m -144.32184,167.52876 h 7.22339 l -1.4e-4,24.07701 h -7.22203 z"
             sodipodi:nodetypes="ccccc" /></g></g><circle
         style="fill:none;fill-opacity:1;stroke:url(#radialGradient1479);stroke-width:6.06073;stroke-dasharray:none;stroke-opacity:1;paint-order:normal"
         id="circle1471"
         cx="398.89612"
         cy="-88.459717"
         inkscape:export-filename="assets/icon/icon-512.png"
         inkscape:export-xdpi="96"
         inkscape:export-ydpi="96"
         r="74.310646" /></g><circle
       style="fill:#13a2d1;fill-opacity:1;stroke-width:0.1"
       id="circle212"
       cx="778.27039"
       cy="4.258142"
       inkscape:export-filename="icon-512.png"
       inkscape:export-xdpi="96"
       inkscape:export-ydpi="96"
       r="67.73333" /><g
       id="g226"
       transform="matrix(0.65765046,0.54863232,-0.60314139,0.60314139,969.3253,-99.521668)"><g
         id="g216"
         transform="matrix(16.679453,0,0,16.679453,4015.1299,960.27231)"
         style="fill:#ff6600;fill-opacity:1"><path
           id="path214"
           style="fill:#ff6600;fill-opacity:1;stroke-width:0.00792878"
           d="m -246.12503,-39.778451 h 0.34933 v 0.372071 h 0.15245 v -0.372071 h 0.0651 v -3.642154 c 0.29265,-0.133877 0.777,-0.149374 1.04645,0 v 3.642154 h 0.0646 v 0.372071 h 0.15296 v -0.372071 h 0.34936 v -3.513662 c 0,0 -0.0738,-0.400279 -0.18676,-0.511436 -0.50621,-0.397754 -1.30065,-0.397778 -1.80684,0 -0.10957,0.109753 -0.18671,0.511436 -0.18671,0.511436 z"
           sodipodi:nodetypes="ccccccccccccccccccc" /></g><g
         id="g224"
         transform="translate(68.79167)"><g
           id="g220"
           transform="matrix(16.679453,0,0,16.679453,3946.4968,883.85793)"><path
             id="path218"
             style="stroke-width:0.00792878"
             d="m -245.04239,-41.657309 c 0,0 -0.70389,0.143724 -1.03009,0.433654 l 4e-4,1.491517 c 0.14478,-0.121675 0.28214,-0.177342 0.50464,-0.227376 v -1.161798 c 0,0 0.18555,-0.07329 0.28334,-0.08815 0.158,-0.02401 0.32143,-0.02398 0.47943,0 0.0979,0.01486 0.28368,0.08816 0.28368,0.08816 v 1.164381 c 0.22757,0.05145 0.36624,0.107835 0.50464,0.225309 v -1.492033 c -0.31037,-0.286125 -1.02604,-0.433664 -1.02604,-0.433664 z"
             sodipodi:nodetypes="cccccaaccccc" /></g><path
           id="path222"
           style="stroke-width:2.14348"
           d="m -144.32184,167.52876 h 7.22339 l -1.4e-4,24.07701 h -7.22203 z"
           sodipodi:nodetypes="ccccc" /></g></g><rect
       style="fill:#13a2d1;fill-opacity:1;stroke-width:0.384504"
       id="rect1013"
       width="270.93332"
       height="132.29167"
       x="535.98889"
       y="209.3933"
       inkscape:export-filename="play-store-graphic.png"
       inkscape:export-xdpi="96"
       inkscape:export-ydpi="96" /><g
       id="g1029"
       transform="matrix(0.65765046,0.54863232,-0.60314139,0.60314139,797.42324,170.17214)"><g
         id="g1019"
         transform="matrix(16.679453,0,0,16.679453,4015.1299,960.27231)"
         style="fill:#ff6600;fill-opacity:1"><path
           id="path1017"
           style="fill:#ff6600;fill-opacity:1;stroke-width:0.00792878"
           d="m -246.12503,-39.778451 h 0.34933 v 0.372071 h 0.15245 v -0.372071 h 0.0651 v -3.642154 c 0.29265,-0.133877 0.777,-0.149374 1.04645,0 v 3.642154 h 0.0646 v 0.372071 h 0.15296 v -0.372071 h 0.34936 v -3.513662 c 0,0 -0.0738,-0.400279 -0.18676,-0.511436 -0.50621,-0.397754 -1.30065,-0.397778 -1.80684,0 -0.10957,0.109753 -0.18671,0.511436 -0.18671,0.511436 z"
           sodipodi:nodetypes="ccccccccccccccccccc" /></g><g
         id="g1027"
         transform="translate(68.79167)"><g
           id="g1023"
           transform="matrix(16.679453,0,0,16.679453,3946.4968,883.85793)"><path
             id="path1021"
             style="stroke-width:0.00792878"
             d="m -245.04239,-41.657309 c 0,0 -0.70389,0.143724 -1.03009,0.433654 l 4e-4,1.491517 c 0.14478,-0.121675 0.28214,-0.177342 0.50464,-0.227376 v -1.161798 c 0,0 0.18555,-0.07329 0.28334,-0.08815 0.158,-0.02401 0.32143,-0.02398 0.47943,0 0.0979,0.01486 0.28368,0.08816 0.28368,0.08816 v 1.164381 c 0.22757,0.05145 0.36624,0.107835 0.50464,0.225309 v -1.492033 c -0.31037,-0.286125 -1.02604,-0.433664 -1.02604,-0.433664 z"
             sodipodi:nodetypes="cccccaaccccc" /></g><path
           id="path1025"
           style="stroke-width:2.14348"
           d="m -144.32184,167.52876 h 7.22339 l -1.4e-4,24.07701 h -7.22203 z"
           sodipodi:nodetypes="ccccc" /></g></g><text
       xml:space="preserve"
       transform="scale(0.26458333)"
       id="text1095"
       style="fill:#13a2d1;fill-opacity:1;white-space:pre;shape-inside:url(#rect1097)" /><text
       xml:space="preserve"
       transform="matrix(0.26458333,0,0,0.26458333,-38.009049,22.057568)"
       id="text1101"
       style="font-size:85.3333px;white-space:pre;shape-inside:url(#rect1103);fill:#13a2d1;fill-opacity:1"
       x="174.72002"
       y="0"><tspan
         x="2669.4683"
         y="943.18171"
         id="tspan1342"><tspan
           style="-inkscape-font-specification:sans-serif;text-align:center;text-anchor:middle;fill:#000000"
           id="tspan1340">Suspension </tspan></tspan><tspan
         x="2784.4975"
         y="1049.8483"
         id="tspan1346"><tspan
           style="-inkscape-font-specification:sans-serif;text-align:center;text-anchor:middle;fill:#000000"
           id="tspan1344">Setup</tspan></tspan></text></g></svg>
