<?xml version="1.0" encoding="UTF-8" standalone="no"?>
<!-- Created with Inkscape (http://www.inkscape.org/) -->

<svg
   width="138.88693mm"
   height="138.88693mm"
   viewBox="0 0 138.88693 138.88693"
   version="1.1"
   id="svg5"
   xml:space="preserve"
   inkscape:version="1.2.2 (b0a8486541, 2022-12-01)"
   sodipodi:docname="icons.svg"
   xmlns:inkscape="http://www.inkscape.org/namespaces/inkscape"
   xmlns:sodipodi="http://sodipodi.sourceforge.net/DTD/sodipodi-0.dtd"
   xmlns="http://www.w3.org/2000/svg"
   xmlns:svg="http://www.w3.org/2000/svg"><sodipodi:namedview
     id="namedview7"
     pagecolor="#ffffff"
     bordercolor="#000000"
     borderopacity="0.25"
     inkscape:showpageshadow="2"
     inkscape:pageopacity="0.0"
     inkscape:pagecheckerboard="0"
     inkscape:deskcolor="#d1d1d1"
     inkscape:document-units="mm"
     showgrid="false"
     inkscape:zoom="0.35355339"
     inkscape:cx="-859.84185"
     inkscape:cy="-172.53405"
     inkscape:window-width="2560"
     inkscape:window-height="1371"
     inkscape:window-x="0"
     inkscape:window-y="0"
     inkscape:window-maximized="1"
     inkscape:current-layer="layer1" /><defs
     id="defs2" /><g
     inkscape:label="Layer 1"
     inkscape:groupmode="layer"
     id="layer1"
     transform="translate(71.239732,-332.24334)"><g
       id="g21446"
       transform="matrix(20.127279,0,0,16.925991,4930.0901,1142.3115)"><path
         id="rect21403"
         style="stroke-width:0.00792878"
         d="m -246.17761,-39.714999 h 0.6995 v -3.642154 c 0.29265,-0.133877 0.61692,-0.149374 0.88637,0 v 3.642154 h 0.69954 v -3.60884 c 0,0 -0.0738,-0.400279 -0.18676,-0.511436 -0.50621,-0.397754 -1.40581,-0.397778 -1.912,0 -0.10957,0.109753 -0.18671,0.511436 -0.18671,0.511436 z"
         sodipodi:nodetypes="ccccccccccc" /></g><g
       id="g21457"
       transform="matrix(20.127279,0,0,16.925991,4930.2819,1063.7092)"><path
         id="path21455"
         style="stroke-width:0.00792878"
         d="m -245.26094,-43.199667 5e-5,1.351501 c -0.21145,0.06786 -0.66153,0.191526 -0.86417,0.37163 l 3.9e-4,1.74439 c 0.14478,-0.121675 0.41477,-0.177344 0.63727,-0.227378 v -1.161797 c 0,0 0.13227,-0.07322 0.2033,-0.08814 0.14862,-0.03121 0.30366,-0.02783 0.45275,0 0.0797,0.01487 0.23032,0.08817 0.23032,0.08817 v 1.164369 c 0.22757,0.05145 0.49886,0.107828 0.63726,0.225302 v -1.744917 c -0.19489,-0.179668 -0.65064,-0.304646 -0.86412,-0.372807 v -1.350324 z"
         sodipodi:nodetypes="ccccccccccccccc" /></g><rect
       style="fill:none;fill-opacity:1;stroke-width:0.102525"
       id="rect23222"
       width="138.88693"
       height="138.88693"
       x="-71.239731"
       y="332.24335"
       inkscape:export-filename="fork.svg"
       inkscape:export-xdpi="96.000046"
       inkscape:export-ydpi="96.000046" /></g></svg>
