<?xml version="1.0" encoding="UTF-8" standalone="no"?>
<!-- Created with Inkscape (http://www.inkscape.org/) -->

<svg
   width="141.0229mm"
   height="141.0229mm"
   viewBox="0 0 141.0229 141.0229"
   version="1.1"
   id="svg5"
   xml:space="preserve"
   inkscape:version="1.2.2 (b0a8486541, 2022-12-01)"
   sodipodi:docname="icons.svg"
   xmlns:inkscape="http://www.inkscape.org/namespaces/inkscape"
   xmlns:sodipodi="http://sodipodi.sourceforge.net/DTD/sodipodi-0.dtd"
   xmlns="http://www.w3.org/2000/svg"
   xmlns:svg="http://www.w3.org/2000/svg"><sodipodi:namedview
     id="namedview7"
     pagecolor="#ffffff"
     bordercolor="#000000"
     borderopacity="0.25"
     inkscape:showpageshadow="2"
     inkscape:pageopacity="0.0"
     inkscape:pagecheckerboard="0"
     inkscape:deskcolor="#d1d1d1"
     inkscape:document-units="mm"
     showgrid="false"
     inkscape:zoom="0.5"
     inkscape:cx="138"
     inkscape:cy="618"
     inkscape:window-width="2560"
     inkscape:window-height="1371"
     inkscape:window-x="0"
     inkscape:window-y="0"
     inkscape:window-maximized="1"
     inkscape:current-layer="layer1" /><defs
     id="defs2" /><g
     inkscape:label="Layer 1"
     inkscape:groupmode="layer"
     id="layer1"
     transform="translate(-0.79927518,225.11436)"><circle
       style="fill:none;fill-opacity:1;stroke:#ffffff;stroke-width:5.55625;stroke-dasharray:none;stroke-opacity:1"
       id="circle1323"
       cx="71.31073"
       cy="-154.60291"
       inkscape:export-filename="assets/icon/icon-white.svg"
       inkscape:export-xdpi="92.217636"
       inkscape:export-ydpi="92.217636"
       r="67.73333" /><g
       id="g1337"
       transform="matrix(0.65765046,0.54863232,-0.60314139,0.60314139,261.04275,-257.58896)"
       style="fill:#ffffff;fill-opacity:1;stroke:none;stroke-opacity:1"><g
         id="g1327"
         transform="matrix(16.679453,0,0,16.679453,4015.1299,960.27231)"
         style="fill:#ffffff;fill-opacity:1;stroke:none;stroke-opacity:1"><path
           id="path1325"
           style="fill:#ffffff;fill-opacity:1;stroke:none;stroke-width:0.00792878;stroke-opacity:1"
           d="m -246.12503,-39.778451 h 0.34933 v 0.372071 h 0.15245 v -0.372071 h 0.0651 v -3.642154 c 0.29265,-0.133877 0.777,-0.149374 1.04645,0 v 3.642154 h 0.0646 v 0.372071 h 0.15296 v -0.372071 h 0.34936 v -3.513662 c 0,0 -0.0738,-0.400279 -0.18676,-0.511436 -0.50621,-0.397754 -1.30065,-0.397778 -1.80684,0 -0.10957,0.109753 -0.18671,0.511436 -0.18671,0.511436 z"
           sodipodi:nodetypes="ccccccccccccccccccc" /></g><g
         id="g1335"
         transform="translate(68.79167)"
         style="fill:#ffffff;fill-opacity:1;stroke:none;stroke-opacity:1"><g
           id="g1331"
           transform="matrix(16.679453,0,0,16.679453,3946.4968,883.85793)"
           style="fill:#ffffff;fill-opacity:1;stroke:none;stroke-opacity:1"><path
             id="path1329"
             style="fill:#ffffff;fill-opacity:1;stroke:none;stroke-width:0.00792878;stroke-opacity:1"
             d="m -245.04239,-41.657309 c 0,0 -0.70389,0.143724 -1.03009,0.433654 l 4e-4,1.491517 c 0.14478,-0.121675 0.28214,-0.177342 0.50464,-0.227376 v -1.161798 c 0,0 0.18555,-0.07329 0.28334,-0.08815 0.158,-0.02401 0.32143,-0.02398 0.47943,0 0.0979,0.01486 0.28368,0.08816 0.28368,0.08816 v 1.164381 c 0.22757,0.05145 0.36624,0.107835 0.50464,0.225309 v -1.492033 c -0.31037,-0.286125 -1.02604,-0.433664 -1.02604,-0.433664 z"
             sodipodi:nodetypes="cccccaaccccc" /></g><path
           id="path1333"
           style="fill:#ffffff;fill-opacity:1;stroke:none;stroke-width:2.14348;stroke-opacity:1"
           d="m -144.32184,167.52876 h 7.22339 l -1.4e-4,24.07701 h -7.22203 z"
           sodipodi:nodetypes="ccccc" /></g></g></g></svg>
